<svg width="165" height="35" viewBox="0 0 165 35" fill="none" xmlns="http://www.w3.org/2000/svg">
  <path
    d="M16.5463 0.958694L0.0925293 7.76087V20.3304L7.69486 23.4652V10.6522L14.2178 7.88261L17.086 9.00869L10.5631 11.9V24.6522L18.3967 27.8935V15.0196L24.9196 12.0674L27.7879 13.1935L21.265 16.0848V29.0804L29.4687 32.4435V19.4478L45.028 12.6L16.5463 0.958694Z"
    fill="#205166" />
  <path
    d="M16.5463 0.958694L0.0925293 7.76087L7.69486 10.6522L14.2178 7.88261L17.086 9.00869L10.5631 11.9L18.3967 15.0348L24.9196 12.0826L27.7879 13.2087L21.265 16.1L29.4687 19.463L45.028 12.6152L16.5463 0.958694Z"
    fill="#B2F928" />
  <path
    d="M39.3533 21.7761H42.9617L45.907 29.9935H46.1229L49.0682 21.7761H52.6766V33.4935H49.978V26.4326H49.7313L47.1098 33.4935H44.9201L42.2986 26.4326H42.0519V33.4935H39.3533V21.7761Z"
    fill="white" />
  <path
    d="M64.643 31.5304H58.7832L58.043 33.4935H55.1285L59.7238 21.7761H63.6869L68.2977 33.4935H65.3678L64.6276 31.5304H64.643ZM63.8565 29.4304L61.9907 24.4239H61.4509L59.5851 29.4304H63.8565Z"
    fill="white" />
  <path
    d="M70.7804 21.7761H74.0495L79.5701 29.6587H79.8322V21.7761H82.5925V33.4935H79.3851L73.8028 25.6109H73.5407V33.4935H70.7804V21.7761Z"
    fill="white" />
  <path
    d="M97.828 33.4935H96.0547L96.0238 31.7891C95.2065 33.0217 93.7108 33.8891 91.5981 33.8891C88.0051 33.8891 85.2603 31.3174 85.2603 27.6348C85.2603 23.9522 87.9126 21.3804 91.814 21.3804C94.3893 21.3804 96.9953 22.5674 97.6276 25.5043H94.821C94.3738 24.4391 93.2944 23.7848 91.8603 23.7848C89.6551 23.7848 88.036 25.3674 88.036 27.6196C88.036 29.8717 89.6551 31.4543 91.7986 31.4543C92.986 31.4543 94.636 30.937 95.0523 29.1717H91.5981V27.2848H97.8126V33.4783L97.828 33.4935Z"
    fill="white" />
  <path
    d="M109.378 33.4935L107.42 30.0087H103.58V33.4935H100.773V21.7761H107.003C110.18 21.7761 111.861 23.237 111.861 25.9761C111.861 27.6043 111.059 28.7913 109.841 29.4456L112.154 33.4935H109.347H109.378ZM103.595 27.8783H106.865C108.299 27.8783 109.085 27.2391 109.085 25.9913C109.085 24.7435 108.299 24.1043 106.865 24.1043H103.595V27.8783Z"
    fill="white" />
  <path
    d="M114.251 27.6348C114.251 23.9522 116.888 21.3804 120.774 21.3804C124.66 21.3804 127.312 23.9522 127.312 27.6348C127.312 31.3174 124.675 33.8891 120.774 33.8891C116.872 33.8891 114.251 31.3174 114.251 27.6348ZM124.506 27.6348C124.506 25.337 122.886 23.8 120.774 23.8C118.661 23.8 117.042 25.337 117.042 27.6348C117.042 29.9326 118.661 31.4696 120.774 31.4696C122.886 31.4696 124.506 29.9326 124.506 27.6348Z"
    fill="white" />
  <path
    d="M128.5 21.7761H131.414L134.899 30.8609H135.269L138.754 21.7761H141.684L137.073 33.4935H133.11L128.515 21.7761H128.5Z"
    fill="white" />
  <path d="M144.136 21.7761H146.943V33.4935H144.136V21.7761Z" fill="white" />
  <path
    d="M158.94 31.5304H153.08L152.34 33.4935H149.425L154.021 21.7761H157.984L162.594 33.4935H159.664L158.924 31.5304H158.94ZM158.153 29.4304L156.287 24.4239H155.748L153.882 29.4304H158.153Z"
    fill="white" />
</svg>